<svg width="20" height="18" viewBox="0 0 20 18" fill="none" xmlns="http://www.w3.org/2000/svg">
<path id="Vector" d="M12.0512 15.0663C11.5115 15.1687 10.9545 15.2222 10.3851 15.2222C6.40491 15.2222 3.03575 12.6063 1.90308 9C2.21143 8.01822 2.68553 7.10988 3.29257 6.30772M8.49901 7.11438C8.98161 6.63181 9.64828 6.33333 10.3846 6.33333C11.8574 6.33333 13.0513 7.5272 13.0513 9C13.0513 9.73636 12.7528 10.403 12.2702 10.8856M8.49901 7.11438L12.2702 10.8856M8.49901 7.11438L5.575 4.19036M12.2702 10.8856L15.1946 13.81M5.575 4.19036L2.38463 1M5.575 4.19036C6.9615 3.29648 8.61272 2.77778 10.385 2.77778C14.3652 2.77778 17.7343 5.3937 18.8669 9C18.2386 11.0006 16.922 12.6964 15.1946 13.81M15.1946 13.81L18.3846 17" stroke="#307FE2" stroke-width="2" stroke-linecap="round" stroke-linejoin="round"/>
</svg>
